<mxfile host="app.diagrams.net" modified="2023-12-03T04:38:26.267Z" agent="Mozilla/5.0 (Windows NT 10.0; Win64; x64) AppleWebKit/537.36 (KHTML, like Gecko) Chrome/119.0.0.0 Safari/537.36" etag="QiHggMdv_Ou-Jj8IzY7-" version="21.1.2" type="github">
  <diagram name="Page-1" id="2QCwowS1EY6LvjyQNwXs">
    <mxGraphModel dx="1434" dy="792" grid="1" gridSize="10" guides="1" tooltips="1" connect="1" arrows="1" fold="1" page="1" pageScale="1" pageWidth="850" pageHeight="1100" math="0" shadow="0">
      <root>
        <mxCell id="0" />
        <mxCell id="1" parent="0" />
        <mxCell id="0LGzvwQm1CpbhoS2yxfh-3" value="" style="edgeStyle=orthogonalEdgeStyle;rounded=0;orthogonalLoop=1;jettySize=auto;html=1;sketch=1;curveFitting=1;jiggle=2;" edge="1" parent="1" source="0LGzvwQm1CpbhoS2yxfh-1" target="0LGzvwQm1CpbhoS2yxfh-2">
          <mxGeometry relative="1" as="geometry" />
        </mxCell>
        <mxCell id="0LGzvwQm1CpbhoS2yxfh-1" value="pdf-files&amp;nbsp;&lt;br&gt;" style="rounded=1;whiteSpace=wrap;html=1;sketch=1;curveFitting=1;jiggle=2;" vertex="1" parent="1">
          <mxGeometry x="180" y="210" width="120" height="60" as="geometry" />
        </mxCell>
        <mxCell id="0LGzvwQm1CpbhoS2yxfh-5" value="" style="edgeStyle=orthogonalEdgeStyle;rounded=0;orthogonalLoop=1;jettySize=auto;html=1;sketch=1;curveFitting=1;jiggle=2;" edge="1" parent="1" source="0LGzvwQm1CpbhoS2yxfh-2" target="0LGzvwQm1CpbhoS2yxfh-4">
          <mxGeometry relative="1" as="geometry" />
        </mxCell>
        <mxCell id="0LGzvwQm1CpbhoS2yxfh-2" value="excel (database)" style="whiteSpace=wrap;html=1;rounded=1;sketch=1;curveFitting=1;jiggle=2;" vertex="1" parent="1">
          <mxGeometry x="380" y="210" width="120" height="60" as="geometry" />
        </mxCell>
        <mxCell id="0LGzvwQm1CpbhoS2yxfh-7" value="" style="edgeStyle=orthogonalEdgeStyle;rounded=0;orthogonalLoop=1;jettySize=auto;html=1;sketch=1;curveFitting=1;jiggle=2;" edge="1" parent="1" source="0LGzvwQm1CpbhoS2yxfh-4" target="0LGzvwQm1CpbhoS2yxfh-6">
          <mxGeometry relative="1" as="geometry" />
        </mxCell>
        <mxCell id="0LGzvwQm1CpbhoS2yxfh-4" value="Processing/Scanning Algo" style="whiteSpace=wrap;html=1;rounded=1;sketch=1;curveFitting=1;jiggle=2;" vertex="1" parent="1">
          <mxGeometry x="580" y="210" width="120" height="60" as="geometry" />
        </mxCell>
        <mxCell id="0LGzvwQm1CpbhoS2yxfh-9" value="" style="edgeStyle=orthogonalEdgeStyle;rounded=0;orthogonalLoop=1;jettySize=auto;html=1;sketch=1;curveFitting=1;jiggle=2;" edge="1" parent="1" source="0LGzvwQm1CpbhoS2yxfh-6" target="0LGzvwQm1CpbhoS2yxfh-8">
          <mxGeometry relative="1" as="geometry" />
        </mxCell>
        <mxCell id="0LGzvwQm1CpbhoS2yxfh-6" value="Tagging" style="whiteSpace=wrap;html=1;rounded=1;sketch=1;curveFitting=1;jiggle=2;" vertex="1" parent="1">
          <mxGeometry x="580" y="350" width="120" height="60" as="geometry" />
        </mxCell>
        <mxCell id="0LGzvwQm1CpbhoS2yxfh-8" value="Reports" style="whiteSpace=wrap;html=1;rounded=1;sketch=1;curveFitting=1;jiggle=2;" vertex="1" parent="1">
          <mxGeometry x="580" y="490" width="120" height="60" as="geometry" />
        </mxCell>
        <mxCell id="0LGzvwQm1CpbhoS2yxfh-11" value="Data Pipeline" style="swimlane;whiteSpace=wrap;html=1;sketch=1;curveFitting=1;jiggle=2;" vertex="1" parent="1">
          <mxGeometry x="120" y="640" width="600" height="560" as="geometry" />
        </mxCell>
        <mxCell id="0LGzvwQm1CpbhoS2yxfh-19" style="edgeStyle=orthogonalEdgeStyle;rounded=0;sketch=1;hachureGap=4;jiggle=2;curveFitting=1;orthogonalLoop=1;jettySize=auto;html=1;entryX=-0.083;entryY=0.663;entryDx=0;entryDy=0;entryPerimeter=0;fontFamily=Architects Daughter;fontSource=https%3A%2F%2Ffonts.googleapis.com%2Fcss%3Ffamily%3DArchitects%2BDaughter;fontSize=16;" edge="1" parent="0LGzvwQm1CpbhoS2yxfh-11" source="0LGzvwQm1CpbhoS2yxfh-13" target="0LGzvwQm1CpbhoS2yxfh-18">
          <mxGeometry relative="1" as="geometry">
            <Array as="points">
              <mxPoint x="100" y="390" />
              <mxPoint x="333" y="390" />
            </Array>
          </mxGeometry>
        </mxCell>
        <mxCell id="0LGzvwQm1CpbhoS2yxfh-13" value="pdf 1" style="rounded=1;whiteSpace=wrap;html=1;sketch=1;hachureGap=4;jiggle=2;curveFitting=1;fontFamily=Architects Daughter;fontSource=https%3A%2F%2Ffonts.googleapis.com%2Fcss%3Ffamily%3DArchitects%2BDaughter;fontSize=20;" vertex="1" parent="0LGzvwQm1CpbhoS2yxfh-11">
          <mxGeometry x="40" y="460" width="120" height="60" as="geometry" />
        </mxCell>
        <mxCell id="0LGzvwQm1CpbhoS2yxfh-20" style="edgeStyle=orthogonalEdgeStyle;rounded=0;sketch=1;hachureGap=4;jiggle=2;curveFitting=1;orthogonalLoop=1;jettySize=auto;html=1;fontFamily=Architects Daughter;fontSource=https%3A%2F%2Ffonts.googleapis.com%2Fcss%3Ffamily%3DArchitects%2BDaughter;fontSize=16;" edge="1" parent="0LGzvwQm1CpbhoS2yxfh-11" source="0LGzvwQm1CpbhoS2yxfh-14" target="0LGzvwQm1CpbhoS2yxfh-18">
          <mxGeometry relative="1" as="geometry" />
        </mxCell>
        <mxCell id="0LGzvwQm1CpbhoS2yxfh-14" value="pdf 2" style="rounded=1;whiteSpace=wrap;html=1;sketch=1;hachureGap=4;jiggle=2;curveFitting=1;fontFamily=Architects Daughter;fontSource=https%3A%2F%2Ffonts.googleapis.com%2Fcss%3Ffamily%3DArchitects%2BDaughter;fontSize=20;" vertex="1" parent="0LGzvwQm1CpbhoS2yxfh-11">
          <mxGeometry x="185" y="460" width="120" height="60" as="geometry" />
        </mxCell>
        <mxCell id="0LGzvwQm1CpbhoS2yxfh-21" style="edgeStyle=orthogonalEdgeStyle;rounded=0;sketch=1;hachureGap=4;jiggle=2;curveFitting=1;orthogonalLoop=1;jettySize=auto;html=1;entryX=0;entryY=0.5;entryDx=0;entryDy=0;fontFamily=Architects Daughter;fontSource=https%3A%2F%2Ffonts.googleapis.com%2Fcss%3Ffamily%3DArchitects%2BDaughter;fontSize=16;" edge="1" parent="0LGzvwQm1CpbhoS2yxfh-11" source="0LGzvwQm1CpbhoS2yxfh-15" target="0LGzvwQm1CpbhoS2yxfh-18">
          <mxGeometry relative="1" as="geometry" />
        </mxCell>
        <mxCell id="0LGzvwQm1CpbhoS2yxfh-15" value="pdf 3" style="rounded=1;whiteSpace=wrap;html=1;sketch=1;hachureGap=4;jiggle=2;curveFitting=1;fontFamily=Architects Daughter;fontSource=https%3A%2F%2Ffonts.googleapis.com%2Fcss%3Ffamily%3DArchitects%2BDaughter;fontSize=20;" vertex="1" parent="0LGzvwQm1CpbhoS2yxfh-11">
          <mxGeometry x="330" y="460" width="120" height="60" as="geometry" />
        </mxCell>
        <mxCell id="0LGzvwQm1CpbhoS2yxfh-22" style="edgeStyle=orthogonalEdgeStyle;rounded=0;sketch=1;hachureGap=4;jiggle=2;curveFitting=1;orthogonalLoop=1;jettySize=auto;html=1;entryX=0;entryY=0.5;entryDx=0;entryDy=0;fontFamily=Architects Daughter;fontSource=https%3A%2F%2Ffonts.googleapis.com%2Fcss%3Ffamily%3DArchitects%2BDaughter;fontSize=16;" edge="1" parent="0LGzvwQm1CpbhoS2yxfh-11" source="0LGzvwQm1CpbhoS2yxfh-16" target="0LGzvwQm1CpbhoS2yxfh-18">
          <mxGeometry relative="1" as="geometry">
            <Array as="points">
              <mxPoint x="530" y="390" />
              <mxPoint x="320" y="390" />
            </Array>
          </mxGeometry>
        </mxCell>
        <mxCell id="0LGzvwQm1CpbhoS2yxfh-16" value="pdf n" style="rounded=1;whiteSpace=wrap;html=1;sketch=1;hachureGap=4;jiggle=2;curveFitting=1;fontFamily=Architects Daughter;fontSource=https%3A%2F%2Ffonts.googleapis.com%2Fcss%3Ffamily%3DArchitects%2BDaughter;fontSize=20;" vertex="1" parent="0LGzvwQm1CpbhoS2yxfh-11">
          <mxGeometry x="470" y="460" width="120" height="60" as="geometry" />
        </mxCell>
        <mxCell id="0LGzvwQm1CpbhoS2yxfh-24" style="edgeStyle=orthogonalEdgeStyle;rounded=0;sketch=1;hachureGap=4;jiggle=2;curveFitting=1;orthogonalLoop=1;jettySize=auto;html=1;entryX=0.5;entryY=1;entryDx=0;entryDy=0;fontFamily=Architects Daughter;fontSource=https%3A%2F%2Ffonts.googleapis.com%2Fcss%3Ffamily%3DArchitects%2BDaughter;fontSize=16;" edge="1" parent="0LGzvwQm1CpbhoS2yxfh-11" source="0LGzvwQm1CpbhoS2yxfh-18" target="0LGzvwQm1CpbhoS2yxfh-23">
          <mxGeometry relative="1" as="geometry" />
        </mxCell>
        <mxCell id="0LGzvwQm1CpbhoS2yxfh-18" value="Refinement" style="triangle;whiteSpace=wrap;html=1;sketch=1;hachureGap=4;jiggle=2;curveFitting=1;fontFamily=Architects Daughter;fontSource=https%3A%2F%2Ffonts.googleapis.com%2Fcss%3Ffamily%3DArchitects%2BDaughter;fontSize=20;rotation=-90;" vertex="1" parent="0LGzvwQm1CpbhoS2yxfh-11">
          <mxGeometry x="290" y="280" width="60" height="80" as="geometry" />
        </mxCell>
        <mxCell id="0LGzvwQm1CpbhoS2yxfh-27" value="" style="edgeStyle=orthogonalEdgeStyle;rounded=0;sketch=1;hachureGap=4;jiggle=2;curveFitting=1;orthogonalLoop=1;jettySize=auto;html=1;fontFamily=Architects Daughter;fontSource=https%3A%2F%2Ffonts.googleapis.com%2Fcss%3Ffamily%3DArchitects%2BDaughter;fontSize=16;" edge="1" parent="0LGzvwQm1CpbhoS2yxfh-11" source="0LGzvwQm1CpbhoS2yxfh-23" target="0LGzvwQm1CpbhoS2yxfh-26">
          <mxGeometry relative="1" as="geometry" />
        </mxCell>
        <mxCell id="0LGzvwQm1CpbhoS2yxfh-23" value="Store" style="rounded=1;whiteSpace=wrap;html=1;sketch=1;hachureGap=4;jiggle=2;curveFitting=1;fontFamily=Architects Daughter;fontSource=https%3A%2F%2Ffonts.googleapis.com%2Fcss%3Ffamily%3DArchitects%2BDaughter;fontSize=20;" vertex="1" parent="0LGzvwQm1CpbhoS2yxfh-11">
          <mxGeometry x="260" y="160" width="120" height="60" as="geometry" />
        </mxCell>
        <mxCell id="0LGzvwQm1CpbhoS2yxfh-26" value="processing" style="whiteSpace=wrap;html=1;fontSize=20;fontFamily=Architects Daughter;rounded=1;sketch=1;hachureGap=4;jiggle=2;curveFitting=1;fontSource=https%3A%2F%2Ffonts.googleapis.com%2Fcss%3Ffamily%3DArchitects%2BDaughter;" vertex="1" parent="0LGzvwQm1CpbhoS2yxfh-11">
          <mxGeometry x="260" y="40" width="120" height="60" as="geometry" />
        </mxCell>
        <mxCell id="0LGzvwQm1CpbhoS2yxfh-12" value="" style="endArrow=none;html=1;rounded=1;sketch=1;curveFitting=1;jiggle=2;" edge="1" parent="1">
          <mxGeometry width="50" height="50" relative="1" as="geometry">
            <mxPoint x="80" y="600" as="sourcePoint" />
            <mxPoint x="760" y="600" as="targetPoint" />
          </mxGeometry>
        </mxCell>
      </root>
    </mxGraphModel>
  </diagram>
</mxfile>
